<?xml version="1.0" standalone="no"?>
<!DOCTYPE svg PUBLIC "-//W3C//DTD SVG 20010904//EN"
 "http://www.w3.org/TR/2001/REC-SVG-20010904/DTD/svg10.dtd">
<svg version="1.0" xmlns="http://www.w3.org/2000/svg"
 width="1350.000000pt" height="1350.000000pt" viewBox="0 0 1350.000000 1350.000000"
 preserveAspectRatio="xMidYMid meet">
<metadata>
Created by potrace 1.14, written by Peter Selinger 2001-2017
</metadata>
<g transform="translate(0.000000,1350.000000) scale(0.100000,-0.100000)"
fill="#000000" stroke="none">
<path d="M9810 10476 l0 -3010 -81 124 c-207 317 -493 648 -774 897 -422 374
-913 663 -1466 863 -149 54 -480 145 -599 165 -19 3 -46 8 -60 10 -14 3 -36 8
-50 10 -29 6 -210 31 -285 39 -238 27 -748 28 -930 1 -16 -2 -52 -6 -80 -9
-87 -10 -261 -38 -350 -57 -27 -6 -61 -13 -75 -15 -167 -31 -583 -166 -757
-245 -23 -10 -44 -19 -47 -19 -9 0 -289 -138 -356 -175 -208 -116 -413 -252
-590 -389 -63 -50 -117 -92 -120 -95 -3 -3 -41 -37 -85 -75 -161 -140 -396
-386 -531 -556 -32 -41 -63 -79 -67 -85 -77 -96 -204 -287 -291 -435 -37 -63
-71 -122 -76 -130 -14 -23 -124 -247 -160 -325 -73 -160 -204 -527 -225 -634
-2 -9 -12 -52 -24 -96 -40 -159 -80 -372 -96 -515 -4 -30 -8 -69 -10 -87 -25
-214 -25 -719 0 -918 14 -107 17 -134 21 -165 7 -48 28 -172 39 -230 5 -26 52
-234 59 -260 166 -624 457 -1193 865 -1690 144 -174 330 -368 481 -500 41 -36
87 -76 102 -89 77 -67 259 -202 383 -285 263 -175 503 -302 792 -420 95 -39
350 -129 400 -141 10 -3 77 -20 150 -40 72 -19 142 -36 155 -39 12 -2 70 -13
128 -25 97 -19 146 -27 225 -37 17 -2 46 -6 65 -9 187 -27 568 -37 830 -22 69
4 136 9 150 12 14 2 50 6 80 10 58 6 228 31 270 40 14 3 41 8 60 11 19 3 82
17 140 31 58 13 112 26 122 28 51 11 279 83 386 121 388 141 797 359 1107 591
96 72 131 99 135 103 3 3 17 15 32 26 139 107 380 337 523 499 39 44 73 82 76
85 3 3 43 52 88 110 45 58 89 113 97 123 11 14 166 244 211 314 9 14 12 -172
12 -839 l1 -858 33 -1 c38 -1 152 -1 413 0 l192 1 0 1128 c1 620 1 1148 1
1173 l1 46 58 13 c67 15 222 64 272 86 159 72 293 152 410 247 518 422 737
1091 571 1744 -151 592 -655 1080 -1253 1213 l-58 13 -1 41 c0 23 -1 1519 -2
3326 l-2 3285 -317 0 -318 0 0 -3009z m-4104 -3254 l-1 -1727 -1725 0 -1725 0
1 25 c7 116 20 210 59 405 121 606 400 1189 801 1669 396 474 888 838 1450
1075 103 43 400 148 444 156 8 2 35 8 60 15 25 7 74 19 110 27 36 8 74 16 85
19 11 2 35 7 54 10 18 3 43 8 55 10 55 11 147 24 211 30 39 4 71 7 72 8 1 1
13 2 26 4 l24 2 -1 -1728z m774 1713 c30 -3 62 -8 70 -10 8 -2 40 -7 70 -10
30 -3 71 -10 90 -15 19 -5 49 -11 65 -13 17 -3 71 -15 120 -27 50 -12 97 -23
105 -25 106 -24 373 -118 538 -189 104 -45 325 -157 333 -169 3 -5 8 -7 10 -6
2 2 15 -4 29 -13 14 -8 61 -37 105 -63 44 -27 82 -53 83 -57 2 -4 8 -8 13 -8
14 0 220 -151 319 -233 329 -274 615 -605 834 -964 67 -111 206 -374 206 -391
0 -7 -37 -30 -82 -52 -46 -22 -92 -46 -102 -53 -11 -6 -44 -28 -74 -47 -30
-19 -62 -39 -71 -45 -9 -5 -18 -12 -21 -15 -3 -3 -30 -25 -60 -50 -127 -103
-264 -257 -355 -400 -82 -128 -183 -359 -210 -480 -2 -8 -8 -35 -14 -60 -27
-122 -36 -207 -36 -365 0 -160 8 -239 40 -379 110 -488 453 -921 900 -1136 47
-22 85 -44 85 -49 0 -5 -33 -73 -73 -152 -424 -832 -1156 -1490 -2022 -1819
-183 -69 -426 -142 -555 -166 -14 -2 -36 -7 -50 -10 -14 -3 -36 -8 -50 -10
-14 -2 -35 -6 -47 -9 -12 -3 -41 -7 -65 -10 -24 -3 -54 -7 -68 -10 -14 -2 -56
-7 -95 -11 -38 -3 -77 -8 -86 -9 -15 -3 -16 312 -16 3763 0 2072 2 3771 4
3775 3 5 21 6 42 3 20 -3 61 -8 91 -11z m-779 -4083 c4 -1 6 -777 5 -1724 l-1
-1723 -45 2 c-38 2 -158 19 -285 39 -25 4 -176 35 -235 49 -59 13 -162 42
-267 76 -637 202 -1230 588 -1673 1089 -41 47 -77 87 -80 90 -3 3 -35 43 -70
90 -36 47 -68 87 -71 90 -3 3 -35 48 -71 100 -306 445 -521 968 -609 1477 -11
65 -22 128 -24 141 -2 13 -7 53 -10 90 -3 37 -8 79 -11 93 l-5 26 1723 -2
c948 -1 1726 -2 1729 -3z"/>
</g>
</svg>
